<?xml version="1.0" standalone="no"?><!DOCTYPE svg PUBLIC "-//W3C//DTD SVG 1.1//EN" "http://www.w3.org/Graphics/SVG/1.1/DTD/svg11.dtd"><svg t="1553128487886" class="icon" style="" viewBox="0 0 1024 1024" version="1.1" xmlns="http://www.w3.org/2000/svg" p-id="4829" xmlns:xlink="http://www.w3.org/1999/xlink" width="28" height="28"><defs><style type="text/css"></style></defs><path d="M864 992h-704c-35.328 0-64-28.672-64-64v-704c0-35.360051 28.672-64 64-64h64v32c0 53.024051 42.976051 96 96 96 52.992 0 96-42.976051 96-96v-32h192v32c0 53.024051 43.008 96 96 96s96-42.976051 96-96v-32h64c35.328 0 64 28.640051 64 64v704c0 35.328-28.672 64-64 64zM864 384h-704v544h704v-544zM320 544h-96v-96h96v96zM320 704h-96v-96h96v96zM320 864h-96v-96h96v96zM480 544h-96v-96h96v96zM480 704h-96v-96h96v96zM480 864h-96v-96h96v96zM640 544h-96v-96h96v96zM640 704h-96v-96h96v96zM640 864h-96v-96h96v96zM800 544h-96v-96h96v96zM800 704h-96v-96h96v96zM800 864h-96v-96h96v96zM703.008051 256c-34.816 0-63.008051-28.224-63.008051-63.008051v-65.984c0-34.816 28.192051-63.008051 63.008051-63.008051s63.008051 28.192051 63.008051 63.008051v65.984c0 34.784051-28.192051 63.008051-63.008051 63.008051zM319.008051 256c-34.816 0-63.008051-28.224-63.008051-63.008051v-65.984c0-34.816 28.192051-63.008051 63.008051-63.008051s63.008051 28.192051 63.008051 63.008051v65.984c0 34.784051-28.224 63.008051-63.008051 63.008051z" p-id="4830" fill="#03a9f4"></path></svg>